<svg id="Capa_1" data-name="Capa 1" xmlns="http://www.w3.org/2000/svg" viewBox="0 0 204.9 267.95"><defs><style>.cls-1{fill:#fff;}</style></defs><path class="cls-1" d="M87.62,180.84a66.2,66.2,0,0,1-11.69,21.44,83.65,83.65,0,0,1-18.56,16.5,175.39,175.39,0,0,1-24.81,13.5v-.12q13.13-8.5,20.56-19.44t10.5-26.44q3.06-15.5,3.06-37.5V17.28a24,24,0,0,0-1.18-8.5,9.09,9.09,0,0,0-4.32-4.69,34.88,34.88,0,0,0-9-2.93V1h54v.13a35.15,35.15,0,0,0-9,2.93,9.07,9.07,0,0,0-4.31,4.69,24,24,0,0,0-1.19,8.5V152.53Q91.68,168.66,87.62,180.84Z" transform="translate(-32.56 -1.03)"/><path class="cls-1" d="M230.21,128.36h-.13q-3.63-14.63-9.94-22.63T202,94.17q-11.88-3.56-32.25-4.56l-20.5-1v87.75l34.5-1.38q10.24-.37,15.43-3a15.41,15.41,0,0,0,7.44-7.81A62.65,62.65,0,0,0,210.33,151h.13v51h-.13a62.72,62.72,0,0,0-3.75-13.18,15.43,15.43,0,0,0-7.44-7.82q-5.17-2.62-15.43-3l-34.5-1.37v92.25l30.5-1.5a147.9,147.9,0,0,0,24.56-3q9.93-2.25,16.25-7a35.08,35.08,0,0,0,10.25-12.69,87.5,87.5,0,0,0,6.56-19.94h.13L234.71,269h-125v-.12a40.66,40.66,0,0,0,9-3,8.75,8.75,0,0,0,4.31-4.69,24.06,24.06,0,0,0,1.19-8.44v-148a24,24,0,0,0-1.19-8.5,9,9,0,0,0-4.31-4.68,34.72,34.72,0,0,0-9-2.94v-.13H228Z" transform="translate(-32.56 -1.03)"/></svg>